<svg width="30" height="28" viewBox="0 0 30 28" fill="none" xmlns="http://www.w3.org/2000/svg">
<path fill-rule="evenodd" clip-rule="evenodd" d="M7.07046 1.0262C5.62994 1.10808 4.34679 1.95933 3.71256 3.25385L0.411575 9.99144C-0.213126 11.2665 -0.11351 12.7786 0.673264 13.9637L4.69171 20.0166C5.4796 21.2033 6.83799 21.8835 8.25888 21.8027L26.2331 20.781C28.4387 20.6557 30.1212 18.7663 29.9912 16.561L29.237 3.77263C29.107 1.56733 27.2136 -0.118794 25.008 0.00657747L7.07046 1.0262ZM5.45409 13.447C6.44102 13.447 7.24109 12.6619 7.24109 11.6935C7.24109 10.725 6.44102 9.93988 5.45409 9.93988C4.46715 9.93988 3.66709 10.725 3.66709 11.6935C3.66709 12.6619 4.46715 13.447 5.45409 13.447Z" fill="url(#paint0_linear)"/>
<path fill-rule="evenodd" clip-rule="evenodd" d="M7.07046 1.0262C5.62994 1.10808 4.34679 1.95933 3.71256 3.25385L0.411575 9.99144C-0.213126 11.2665 -0.11351 12.7786 0.673264 13.9637L4.69171 20.0166C5.4796 21.2033 6.83799 21.8835 8.25888 21.8027L26.2331 20.781C28.4387 20.6557 30.1212 18.7663 29.9912 16.561L29.237 3.77263C29.107 1.56733 27.2136 -0.118794 25.008 0.00657747L7.07046 1.0262ZM5.45409 13.447C6.44102 13.447 7.24109 12.6619 7.24109 11.6935C7.24109 10.725 6.44102 9.93988 5.45409 9.93988C4.46715 9.93988 3.66709 10.725 3.66709 11.6935C3.66709 12.6619 4.46715 13.447 5.45409 13.447Z" fill="url(#paint1_radial)"/>
<path fill-rule="evenodd" clip-rule="evenodd" d="M21.4206 5.39667L22.9331 4.03085C21.3601 3.046 19.4374 2.54379 17.4267 2.75984L17.4285 2.77617C15.2606 3.01328 13.3713 4.03663 12.0245 5.52386L12.0165 5.51697C10.4793 7.20981 9.65966 9.49669 9.92198 11.9143C9.9223 11.9174 9.92262 11.9204 9.92296 11.9234C9.92302 11.9239 9.92308 11.9245 9.92315 11.9251C9.92368 11.9299 9.92422 11.9348 9.92476 11.9396L9.92479 11.9396C10.1661 14.0646 11.2097 15.9163 12.7266 17.2361L12.7196 17.2438C14.4444 18.7486 16.774 19.5513 19.2375 19.2962C19.2396 19.296 19.2416 19.2958 19.2437 19.2956C19.2474 19.2952 19.2511 19.2948 19.2548 19.2944C21.4341 19.0603 23.3329 18.0318 24.6837 16.5358L24.7 16.55C26.2278 14.8693 27.0625 12.5543 26.7917 10.1273C26.7354 9.62239 26.631 9.13909 26.4934 8.65936L24.8293 10.1734L24.8475 10.3362C25.0439 12.0971 24.4869 13.7642 23.436 15.0356L23.4196 15.0227C22.3873 16.3205 20.8535 17.1941 19.0588 17.3869L19.0588 17.3869L19.0588 17.3869C19.0021 17.393 18.9455 17.3983 18.889 17.4029C18.8359 17.4066 18.7825 17.4082 18.7246 17.4063L18.7251 17.4144C17.0567 17.51 15.4891 16.973 14.2741 16.0118L14.2799 16.0047C12.9728 14.9913 12.0653 13.4899 11.869 11.7307C11.8686 11.7264 11.8681 11.7221 11.8676 11.7178C11.862 11.6666 11.857 11.6155 11.8527 11.5644C11.849 11.5123 11.8474 11.4599 11.8493 11.4032L11.8412 11.4036C11.746 9.78033 12.2929 8.23263 13.2731 7.04044L13.2803 7.04609C14.3145 5.76462 15.8631 4.87295 17.6412 4.6819C17.7575 4.6694 17.8572 4.65868 17.9753 4.66247L17.9741 4.64162C19.2172 4.58218 20.4031 4.85538 21.4206 5.39667ZM25.6641 6.80337C25.3162 6.24734 24.922 5.72925 24.4669 5.26716L18.3227 10.79L14.8956 9.16374L15.1609 11.5419L18.6065 13.1827L25.6641 6.80337Z" fill="white"/>
<path d="M1.49498 27.0243C2.34012 27.0243 2.85715 26.7365 2.85715 26.0291C2.85715 25.5852 2.66327 25.3168 2.23572 25.2437C2.59367 25.1071 2.75275 24.8485 2.75275 24.4582C2.75275 23.8923 2.35504 23.6094 1.57949 23.6094H0.0681763V27.0243H1.49498ZM0.689606 26.4633V25.5315H1.54469C1.98218 25.5315 2.23075 25.6583 2.23075 25.9852C2.23075 26.3121 2.01201 26.4633 1.53475 26.4633H0.689606ZM0.689606 25.0534V24.1704H1.50492C1.94738 24.1704 2.13132 24.3168 2.13132 24.5899C2.13132 24.8827 1.88275 25.0534 1.49001 25.0534H0.689606Z" fill="#62D53F"/>
<path d="M4.7557 27.9659H5.33735V26.6535C5.46164 26.8828 5.73507 27.078 6.13278 27.078C6.81387 27.078 7.25633 26.7121 7.25633 25.751C7.25633 24.8973 6.81387 24.5363 6.1825 24.5363C5.65553 24.5363 5.39204 24.8192 5.30255 25.0924V24.5851H4.7557V27.9659ZM5.33735 25.7022C5.3473 25.2925 5.5561 25.0436 6.01347 25.0436C6.41118 25.0436 6.67467 25.2388 6.67467 25.7754C6.67467 26.3511 6.47084 26.5755 6.00353 26.5755C5.59587 26.5755 5.33735 26.3267 5.33735 25.8876V25.7022Z" fill="#62D53F"/>
<path d="M7.84968 25.4681C8.01871 25.2095 8.28219 25.0339 8.73956 25.0339C9.07265 25.0339 9.24168 25.1412 9.24168 25.4876V25.5949H8.67991C8.06842 25.5949 7.65579 25.751 7.65579 26.3072C7.65579 26.7853 7.95408 27.0633 8.45619 27.0633C8.85391 27.0633 9.15716 26.8682 9.27648 26.5852V27.0243H9.82334V25.4144C9.82334 24.7802 9.46539 24.5363 8.73956 24.5363C8.31202 24.5363 8.01373 24.6339 7.84968 24.7558V25.4681ZM8.64013 26.5511C8.38162 26.5511 8.24242 26.434 8.24242 26.2486C8.24242 26.0291 8.40648 25.9657 8.74951 25.9657H9.24168V26.1657C9.21682 26.3316 9.03288 26.5511 8.64013 26.5511Z" fill="#62D53F"/>
<path d="M12.4728 26.7804V26.195C12.3486 26.4096 12.0751 26.5804 11.6625 26.5804C11.1952 26.5804 10.9168 26.3462 10.9168 25.8437V25.7705C10.9168 25.2778 11.1753 25.029 11.6526 25.029C12.0155 25.0339 12.279 25.2095 12.448 25.4681V24.7558C12.2839 24.6339 11.9856 24.5363 11.6526 24.5314C10.8621 24.5363 10.3252 24.9558 10.3252 25.7949C10.3252 26.6487 10.8522 27.078 11.6476 27.078C12.0503 27.078 12.3635 26.917 12.4728 26.7804Z" fill="#62D53F"/>
<path d="M14.9197 26.7804V26.195C14.7954 26.4096 14.522 26.5804 14.1094 26.5804C13.6421 26.5804 13.3637 26.3462 13.3637 25.8437V25.7705C13.3637 25.2778 13.6222 25.029 14.0994 25.029C14.4623 25.0339 14.7258 25.2095 14.8949 25.4681V24.7558C14.7308 24.6339 14.4325 24.5363 14.0994 24.5314C13.309 24.5363 12.7721 24.9558 12.7721 25.7949C12.7721 26.6487 13.299 27.078 14.0945 27.078C14.4971 27.078 14.8103 26.917 14.9197 26.7804Z" fill="#62D53F"/>
<path d="M15.4511 27.9659H16.0327V26.6535C16.157 26.8828 16.4305 27.078 16.8282 27.078C17.5093 27.078 17.9517 26.7121 17.9517 25.751C17.9517 24.8973 17.5093 24.5363 16.8779 24.5363C16.3509 24.5363 16.0874 24.8192 15.9979 25.0924V24.5851H15.4511V27.9659ZM16.0327 25.7022C16.0427 25.2925 16.2515 25.0436 16.7089 25.0436C17.1066 25.0436 17.3701 25.2388 17.3701 25.7754C17.3701 26.3511 17.1662 26.5755 16.6989 26.5755C16.2913 26.5755 16.0327 26.3267 16.0327 25.8876V25.7022Z" fill="#62D53F"/>
<path d="M19.594 27.078C20.3646 27.0731 20.8866 26.6584 20.8866 25.8144C20.8866 24.9656 20.3845 24.5363 19.6139 24.5314C18.8384 24.5314 18.3164 24.951 18.3164 25.7949C18.3164 26.6487 18.8185 27.078 19.594 27.078ZM18.908 25.7949C18.908 25.2827 19.1516 25.0339 19.594 25.029C20.0315 25.029 20.295 25.2632 20.295 25.7998V25.8144C20.295 26.3316 20.0464 26.5804 19.604 26.5804C19.1665 26.5804 18.908 26.3462 18.908 25.8096V25.7949Z" fill="#62D53F"/>
<path d="M22.929 27.0243H23.5106V24.5851H22.929V25.6876C22.7798 25.7608 22.5909 25.7998 22.3921 25.7998C22.0838 25.7998 21.9148 25.6632 21.9148 25.3705V24.5851H21.3331V25.4583C21.3331 26.0437 21.6911 26.3072 22.2877 26.3072C22.5163 26.3072 22.755 26.2633 22.929 26.1657V27.0243Z" fill="#62D53F"/>
<path d="M24.2142 27.0243H24.7959V26.0145H25.1936L25.9741 27.0243H26.68L25.6708 25.7364L26.5408 24.5851H25.8946L25.1985 25.5364H24.7959V24.5851H24.2142V27.0243Z" fill="#62D53F"/>
<path d="M27.834 27.0341C27.7396 27.3658 27.6053 27.4829 27.4264 27.4829C27.317 27.4829 27.2027 27.4341 27.1281 27.3609V27.8927C27.2027 27.9561 27.3717 28 27.5258 28C27.8539 28 28.0776 27.8683 28.2964 27.2829L29.2907 24.5851H28.6742L28.1174 26.2584L27.4363 24.5851H26.7851L27.834 27.0341Z" fill="#62D53F"/>
<defs>
<linearGradient id="paint0_linear" x1="28.1483" y1="1.60623e-05" x2="28.4921" y2="21.8402" gradientUnits="userSpaceOnUse">
<stop stop-color="#0381DF"/>
<stop offset="0.827488" stop-color="#279632"/>
</linearGradient>
<radialGradient id="paint1_radial" cx="0" cy="0" r="1" gradientUnits="userSpaceOnUse" gradientTransform="translate(3.89042 21.84) rotate(-67.5451) scale(29.2883 27.1197)">
<stop stop-color="#FFFD54"/>
<stop offset="0.47658" stop-color="#62D53F"/>
<stop offset="1" stop-color="#49A9EF" stop-opacity="0.4"/>
</radialGradient>
</defs>
</svg>
