<svg width="30" height="22" viewBox="0 0 30 22" fill="none" xmlns="http://www.w3.org/2000/svg">
    <path fill-rule="evenodd" clip-rule="evenodd" d="M7.06677 1.026C5.62636 1.10787 4.34331 1.95898 3.70902 3.25333L0.407273 9.99096C-0.217651 11.2662 -0.118012 12.7786 0.669008 13.9639L4.68821 20.0167C5.47613 21.2033 6.83442 21.8833 8.25518 21.8026L26.2347 20.7806C28.4402 20.6552 30.1228 18.7658 29.9927 16.5605L29.2386 3.77213C29.1085 1.56682 27.2151 -0.119298 25.0095 0.00607393L7.06677 1.026ZM5.45158 13.447C6.43852 13.447 7.23858 12.6619 7.23858 11.6934C7.23858 10.7249 6.43852 9.93981 5.45158 9.93981C4.46465 9.93981 3.66459 10.7249 3.66459 11.6934C3.66459 12.6619 4.46465 13.447 5.45158 13.447Z" fill="url(#paint0_linear)"/>
    <path fill-rule="evenodd" clip-rule="evenodd" d="M7.06677 1.026C5.62636 1.10787 4.34331 1.95898 3.70902 3.25333L0.407273 9.99096C-0.217651 11.2662 -0.118012 12.7786 0.669008 13.9639L4.68821 20.0167C5.47613 21.2033 6.83442 21.8833 8.25518 21.8026L26.2347 20.7806C28.4402 20.6552 30.1228 18.7658 29.9927 16.5605L29.2386 3.77213C29.1085 1.56682 27.2151 -0.119298 25.0095 0.00607393L7.06677 1.026ZM5.45158 13.447C6.43852 13.447 7.23858 12.6619 7.23858 11.6934C7.23858 10.7249 6.43852 9.93981 5.45158 9.93981C4.46465 9.93981 3.66459 10.7249 3.66459 11.6934C3.66459 12.6619 4.46465 13.447 5.45158 13.447Z" fill="url(#paint1_radial)"/>
    <path fill-rule="evenodd" clip-rule="evenodd" d="M21.4184 5.39623L22.9312 4.03037C21.358 3.04555 19.4349 2.54338 17.4237 2.75947L17.4256 2.7758C15.2572 3.01296 13.3675 4.03636 12.0204 5.52362L12.0125 5.51673C10.4749 7.20961 9.655 9.49652 9.91733 11.9142C9.91764 11.9172 9.91797 11.9202 9.9183 11.9232C9.91837 11.9238 9.91843 11.9243 9.9185 11.9249C9.91903 11.9298 9.91957 11.9346 9.92011 11.9395L9.92014 11.9394C10.1615 14.0644 11.2052 15.9161 12.7224 17.2359L12.7154 17.2436C14.4405 18.7483 16.7706 19.5511 19.2346 19.2959C19.2366 19.2957 19.2387 19.2955 19.2407 19.2953C19.2445 19.2949 19.2482 19.2945 19.2519 19.2941C21.4316 19.0599 23.3309 18.0314 24.6819 16.5354L24.6982 16.5495C26.2263 14.8688 27.0613 12.5538 26.7905 10.1268C26.7342 9.62185 26.6298 9.13856 26.4922 8.65883L24.8277 10.1729L24.8459 10.3357C25.0423 12.0966 24.4852 13.7637 23.434 15.0352L23.4177 15.0223C22.385 16.3201 20.8509 17.1937 19.0559 17.3866L19.0558 17.3866L19.0558 17.3865C18.9991 17.3926 18.9425 17.398 18.886 17.4026C18.8329 17.4062 18.7795 17.4078 18.7216 17.406L18.7221 17.414C17.0534 17.5097 15.4854 16.9728 14.2702 16.0116L14.276 16.0045C12.9687 14.9911 12.0611 13.4897 11.8648 11.7305C11.8643 11.7262 11.8638 11.7219 11.8634 11.7176C11.8577 11.6664 11.8528 11.6153 11.8485 11.5642C11.8448 11.5121 11.8432 11.4597 11.8451 11.403L11.837 11.4034C11.7418 9.78012 12.2888 8.2324 13.2693 7.04019L13.2764 7.04583C14.3109 5.76433 15.8598 4.87262 17.6382 4.68153C17.7546 4.66903 17.8543 4.65832 17.9725 4.6621L17.9712 4.64124C19.2146 4.58178 20.4008 4.85496 21.4184 5.39623ZM25.6627 6.80285C25.3148 6.24682 24.9205 5.72873 24.4653 5.26665L18.3198 10.7897L14.892 9.16346L15.1573 11.5416L18.6036 13.1823L25.6627 6.80285Z" fill="white"/>
    <defs>
        <linearGradient id="paint0_linear" x1="28.1494" y1="-0.000487478" x2="28.4932" y2="21.84" gradientUnits="userSpaceOnUse">
            <stop stop-color="#0381DF"/>
            <stop offset="0.827488" stop-color="#279632"/>
        </linearGradient>
        <radialGradient id="paint1_radial" cx="0" cy="0" r="1" gradientUnits="userSpaceOnUse" gradientTransform="translate(3.88674 21.8398) rotate(-67.5413) scale(29.2895 27.1244)">
            <stop stop-color="#FFFD54"/>
            <stop offset="0.47658" stop-color="#62D53F"/>
            <stop offset="1" stop-color="#49A9EF" stop-opacity="0.4"/>
        </radialGradient>
    </defs>
</svg>